<svg width="24" height="24" viewBox="0 0 24 24" fill="none" xmlns="http://www.w3.org/2000/svg">
<path d="M20.9997 12.1994C20.9997 11.4594 20.9385 10.9194 20.8059 10.3594H12.1836V13.6993H17.2447C17.1427 14.5294 16.5917 15.7794 15.3672 16.6193L15.35 16.7312L18.0762 18.8009L18.2651 18.8194C19.9997 17.2494 20.9997 14.9394 20.9997 12.1994Z" fill="#4285F4"/>
<path d="M12.1805 21.0013C14.66 21.0013 16.7416 20.2012 18.262 18.8213L15.3641 16.6212C14.5886 17.1512 13.5478 17.5212 12.1805 17.5212C9.75199 17.5212 7.69082 15.9513 6.95607 13.7812L6.84838 13.7902L4.01363 15.9402L3.97656 16.0412C5.48672 18.9812 8.5887 21.0013 12.1805 21.0013Z" fill="#34A853"/>
<path d="M6.95906 13.7818C6.76519 13.2218 6.65299 12.6218 6.65299 12.0018C6.65299 11.3818 6.76519 10.7818 6.94886 10.2218L6.94372 10.1025L4.07346 7.91797L3.97955 7.96175C3.35714 9.18176 3 10.5518 3 12.0018C3 13.4518 3.35714 14.8218 3.97955 16.0418L6.95906 13.7818Z" fill="#FBBC05"/>
<path d="M12.1805 6.47999C13.9049 6.47999 15.0681 7.20999 15.7314 7.82003L18.3232 5.34001C16.7314 3.89001 14.66 3 12.1805 3C8.5887 3 5.48672 5.01999 3.97656 7.95998L6.94587 10.22C7.69082 8.05001 9.75199 6.47999 12.1805 6.47999Z" fill="#EB4335"/>
</svg>
