<svg width="25" height="26" viewBox="0 0 25 26" fill="none" xmlns="http://www.w3.org/2000/svg">
<path d="M24.887 0.984375H0.112793V25.7586H24.887V0.984375Z" stroke="#717171" stroke-width="0.121094"/>
<path d="M5.55124 11.0489C5.54995 10.1311 5.73025 9.22206 6.08177 8.37422C6.43329 7.52638 6.94908 6.75646 7.59943 6.10881C8.24977 5.46115 9.02182 4.94857 9.87111 4.60058C10.7204 4.25258 11.6302 4.07606 12.548 4.08116C16.3802 4.11019 19.4479 7.29406 19.4479 11.136V11.8231C19.4479 15.2876 20.1737 17.3005 20.8124 18.4037C20.8802 18.5212 20.916 18.6545 20.9161 18.7902C20.9163 18.9258 20.8807 19.0591 20.8131 19.1768C20.7455 19.2944 20.6481 19.3921 20.5308 19.4603C20.4135 19.5284 20.2803 19.5646 20.1447 19.565H4.85447C4.7188 19.5646 4.58564 19.5284 4.46833 19.4603C4.35102 19.3921 4.25367 19.2944 4.18605 19.1768C4.11842 19.0591 4.08289 18.9258 4.08301 18.7902C4.08313 18.6545 4.1189 18.5212 4.18673 18.4037C4.82544 17.3005 5.55124 15.2876 5.55124 11.8231V11.0489Z" stroke="#717171" stroke-width="1.9375" stroke-linecap="round" stroke-linejoin="round"/>
<path d="M9.40332 19.5649V20.3391C9.40332 21.1605 9.72958 21.9481 10.3103 22.5289C10.8911 23.1096 11.6788 23.4359 12.5001 23.4359C13.3214 23.4359 14.109 23.1096 14.6898 22.5289C15.2705 21.9481 15.5968 21.1605 15.5968 20.3391V19.5649" stroke="#717171" stroke-width="1.9375" stroke-linecap="round" stroke-linejoin="round"/>
</svg>
